<?xml version="1.0" encoding="UTF-8"?>
<svg version="1.1" xmlns="http://www.w3.org/2000/svg" width="289" height="96">
<path d="M0 0 C95.37 0 190.74 0 289 0 C289 31.68 289 63.36 289 96 C193.63 96 98.26 96 0 96 C0 64.32 0 32.64 0 0 Z " fill="#FCFBFB" transform="translate(0,0)"/>
<path d="M0 0 C4.7504701 1.15162911 7.5463781 4.00915517 10.6171875 7.625 C12.94895518 11.62984393 12.57836699 15.51995093 12 20 C13.7015625 19.93039063 13.7015625 19.93039063 15.4375 19.859375 C30.84237531 19.41196592 30.84237531 19.41196592 37 24 C41.20056418 29.27763191 42.41547477 33.61910112 42.34765625 40.2265625 C41.61242106 46.09192184 39.05015436 51.34987576 34.4375 55.0625 C30.60122078 56.53799201 27.34901338 57.12403214 23.234375 57.09765625 C22.34492187 57.09443359 21.45546875 57.09121094 20.5390625 57.08789062 C19.15847656 57.07532227 19.15847656 57.07532227 17.75 57.0625 C16.34621094 57.05573242 16.34621094 57.05573242 14.9140625 57.04882812 C12.60930959 57.03706918 10.30468773 57.02063426 8 57 C8.66 56.34 9.32 55.68 10 55 C10.19959902 52.53740008 10.27989206 50.18975908 10.265625 47.7265625 C10.26753845 47.00640961 10.2694519 46.28625671 10.27142334 45.54428101 C10.2727852 44.01942598 10.26908864 42.49455936 10.26074219 40.96972656 C10.25007334 38.64100888 10.26062081 36.31306812 10.2734375 33.984375 C10.27211529 32.50260247 10.26955164 31.02083042 10.265625 29.5390625 C10.26967346 28.84414703 10.27372192 28.14923157 10.27789307 27.43325806 C10.24284086 23.79740328 10.10389851 21.02775386 8 18 C7.01 17.175 6.02 16.35 5 15.5 C2.19969702 13.16641418 1.2472018 12.25460278 0 9 C-0.1953125 6.640625 -0.1953125 6.640625 -0.125 4.25 C-0.10695313 3.45078125 -0.08890625 2.6515625 -0.0703125 1.828125 C-0.04710938 1.22484375 -0.02390625 0.6215625 0 0 Z " fill="#EF4770" transform="translate(18,6)"/>
<path d="M0 0 C3.22001366 -0.22572342 5.36785627 -0.34530714 8.23828125 1.22265625 C15.36465158 7.54378699 19.35945653 14.75014494 24 23 C24.33 16.07 24.66 9.14 25 2 C24.01 1.67 23.02 1.34 22 1 C22 0.67 22 0.34 22 0 C26.29 0 30.58 0 35 0 C34.67 0.66 34.34 1.32 34 2 C33.34 2 32.68 2 32 2 C32.11809221 7.09049582 32.24232913 12.18079005 32.37231445 17.27099609 C32.4156808 19.00337626 32.45735463 20.73579963 32.49731445 22.46826172 C32.55497594 24.95553627 32.61868198 27.44259293 32.68359375 29.9296875 C32.70030624 30.70682098 32.71701874 31.48395447 32.73423767 32.28463745 C32.76473429 36.27274216 32.76473429 36.27274216 34 40 C27.2929404 39.1899111 23.40159317 34.8277686 19 30 C15.98081222 25.85561946 13.5364799 21.46232575 11 17 C10.67 23.93 10.34 30.86 10 38 C7.03 38 4.06 38 1 38 C1.33 37.34 1.66 36.68 2 36 C2.15644172 33.44893971 2.25821389 30.92081337 2.31640625 28.3671875 C2.33718735 27.61535187 2.35796844 26.86351624 2.37937927 26.08889771 C2.44482705 23.68435915 2.50373738 21.27971033 2.5625 18.875 C2.60568977 17.24608229 2.64930421 15.61717578 2.69335938 13.98828125 C2.80050351 9.99230085 2.90178433 5.99620941 3 2 C2.01 1.67 1.02 1.34 0 1 C0 0.67 0 0.34 0 0 Z " fill="#84397F" transform="translate(234,25)"/>
<path d="M0 0 C3.3 0 6.6 0 10 0 C10.01458252 0.70608398 10.02916504 1.41216797 10.04418945 2.13964844 C10.11873167 5.34364674 10.21537205 8.54661016 10.3125 11.75 C10.33505859 12.86117187 10.35761719 13.97234375 10.38085938 15.1171875 C10.41630859 16.18710937 10.45175781 17.25703125 10.48828125 18.359375 C10.51446533 19.34389648 10.54064941 20.32841797 10.56762695 21.34277344 C11.06864893 24.4218944 11.75484425 25.84135484 14 28 C16.0488648 28.48057715 16.0488648 28.48057715 18.1875 28.25 C20.0746875 28.12625 20.0746875 28.12625 22 28 C22.02891949 23.70834738 22.04677118 19.41671964 22.0625 15.125 C22.07087891 13.90167969 22.07925781 12.67835937 22.08789062 11.41796875 C22.09111328 10.25136719 22.09433594 9.08476563 22.09765625 7.8828125 C22.10289307 6.80402832 22.10812988 5.72524414 22.11352539 4.61376953 C22.17883106 2.01767814 22.17883106 2.01767814 21 0 C24.3 0 27.6 0 31 0 C31 11.88 31 23.76 31 36 C11.76029963 37.74906367 11.76029963 37.74906367 7.0625 35.75 C3.88795951 33.05645049 2.17161229 31.23307355 1.58349609 27.00732422 C1.56367676 25.8679541 1.54385742 24.72858398 1.5234375 23.5546875 C1.4925 22.31332031 1.4615625 21.07195313 1.4296875 19.79296875 C1.41164063 18.50003906 1.39359375 17.20710938 1.375 15.875 C1.32415395 13.30981681 1.26965793 10.74470251 1.2109375 8.1796875 C1.19337402 7.04257324 1.17581055 5.90545898 1.15771484 4.73388672 C1.18264699 2.03616196 1.18264699 2.03616196 0 0 Z " fill="#EF466F" transform="translate(63,26)"/>
<path d="M0 0 C0.79664063 0.07863281 1.59328125 0.15726563 2.4140625 0.23828125 C3.38472656 0.46064453 3.38472656 0.46064453 4.375 0.6875 C4.705 1.3475 5.035 2.0075 5.375 2.6875 C4.158125 2.914375 2.94125 3.14125 1.6875 3.375 C-2.592702 4.42987248 -4.79326848 6.25509815 -7.625 9.6875 C-9.60738059 13.65226118 -9.17089238 18.37619086 -8.625 22.6875 C-6.74583474 26.07050481 -6.74583474 26.07050481 -3.625 27.6875 C-0.5095108 28.09892752 -0.5095108 28.09892752 2.375 26.6875 C4.92080427 24.0764187 6.29130511 22.17569975 6.5 18.46484375 C6.13159373 13.86744055 5.17181712 10.45712308 2.375 6.6875 C6.0664299 6.34411117 7.92177695 6.40938585 11.125 8.375 C14.87201755 12.22610137 15.49845108 15.37101553 15.6875 20.625 C15.56385206 26.1726709 14.05983061 29.66570327 10.5 33.9375 C6.15604204 37.51487715 2.14236137 38.08365688 -3.34765625 37.9375 C-8.18333669 37.40665343 -11.5680014 35.77306613 -14.9375 32.3125 C-18.99552122 26.00002255 -19.55291367 20.06297877 -18.625 12.6875 C-16.47868098 6.98547651 -12.9740799 3.59460864 -7.625 0.6875 C-4.59335415 -0.32304862 -3.10749249 -0.3390912 0 0 Z " fill="#C84074" transform="translate(145.625,25.3125)"/>
<path d="M0 0 C0.33 1.98 0.66 3.96 1 6 C0.14277344 5.88140625 -0.71445313 5.7628125 -1.59765625 5.640625 C-9.11387671 4.59490956 -9.11387671 4.59490956 -16.1875 6.6875 C-19.49866668 9.30223123 -19.49866668 9.30223123 -21 13 C-21.45208548 17.97294029 -21.15736025 21.05329969 -18 25 C-14.68304275 27.36925518 -10.97790347 27.54101114 -7 28 C-7.33 24.37 -7.66 20.74 -8 17 C-5.03 17 -2.06 17 1 17 C1.06058594 18.12019531 1.12117188 19.24039063 1.18359375 20.39453125 C1.26801424 21.86719984 1.35266149 23.33985544 1.4375 24.8125 C1.47681641 25.55048828 1.51613281 26.28847656 1.55664062 27.04882812 C1.74381035 30.23071342 1.98720793 32.96162378 3 36 C-18.60855742 36.72385986 -18.60855742 36.72385986 -24.64453125 31.60546875 C-29.65677366 25.89989022 -30.39866785 21.29653784 -30.24609375 13.91015625 C-29.78995054 8.51608182 -27.97286449 5.93056603 -24.125 2.25 C-16.6858353 -3.10619858 -8.501466 -3.57956463 0 0 Z " fill="#AE3976" transform="translate(194,27)"/>
<path d="M0 0 C9.57 0 19.14 0 29 0 C29.33 1.98 29.66 3.96 30 6 C23.73 5.67 17.46 5.34 11 5 C11 7.64 11 10.28 11 13 C12.79206547 12.85915204 14.58364917 12.71216299 16.375 12.5625 C17.37273437 12.48128906 18.37046875 12.40007813 19.3984375 12.31640625 C21.97927613 12.15034374 21.97927613 12.15034374 24 11 C24 13.97 24 16.94 24 20 C23.34 19.67 22.68 19.34 22 19 C20.12943209 18.7724985 18.25314042 18.59037189 16.375 18.4375 C14.60125 18.293125 12.8275 18.14875 11 18 C11 21.96 11 25.92 11 30 C20.9 29.505 20.9 29.505 31 29 C30.34 31.97 29.68 34.94 29 38 C19.43 38 9.86 38 0 38 C0.66 37.34 1.32 36.68 2 36 C2.19954194 33.52586821 2.27989475 31.16612482 2.265625 28.69140625 C2.26753845 27.96888168 2.2694519 27.24635712 2.27142334 26.50193787 C2.27278504 24.97288668 2.26908964 23.44382393 2.26074219 21.91479492 C2.25005751 19.57509316 2.2606295 17.23616193 2.2734375 14.89648438 C2.2721156 13.41145664 2.26955257 11.92642938 2.265625 10.44140625 C2.26967346 9.7413295 2.27372192 9.04125275 2.27789307 8.31996155 C2.24257654 4.65626704 2.08995623 3.13493434 0 0 Z " fill="#973578" transform="translate(201,25)"/>
<path d="M0 0 C9.57 0 19.14 0 29 0 C29.66 1.98 30.32 3.96 31 6 C24.73 5.67 18.46 5.34 12 5 C12 7.64 12 10.28 12 13 C17.94 12.505 17.94 12.505 24 12 C24 14.31 24 16.62 24 19 C20.04 19 16.08 19 12 19 C12.1404983 21.7920301 12.28715383 24.58349796 12.4375 27.375 C12.47681641 28.1690625 12.51613281 28.963125 12.55664062 29.78125 C12.68893404 34.02601221 12.68893404 34.02601221 14 38 C9.38 38 4.76 38 0 38 C0.66 37.34 1.32 36.68 2 36 C2.24529581 33.42420615 2.37341793 30.94770993 2.4140625 28.3671875 C2.43342865 27.61535187 2.4527948 26.86351624 2.4727478 26.08889771 C2.53259147 23.68438101 2.57894726 21.27981656 2.625 18.875 C2.66317546 17.24607272 2.70222693 15.61716572 2.7421875 13.98828125 C2.83829666 9.99235194 2.92230941 5.99632813 3 2 C2.01 1.67 1.02 1.34 0 1 C0 0.67 0 0.34 0 0 Z " fill="#E54E78" transform="translate(97,25)"/>
<path d="M0 0 C5.63728862 0.9395481 7.70822557 1.58608852 12 5 C14.60160079 9.19783721 14.54112523 13.19858724 14 18 C12.58028566 21.62815886 11.42653352 22.73109843 8.125 24.8125 C5 26 5 26 0 26 C0 17.42 0 8.84 0 0 Z " fill="#FEF5F7" transform="translate(37,31)"/>
<path d="M0 0 C2.81844838 1.38026753 4.62670356 2.89040317 7 5 C5.68 5.33 4.36 5.66 3 6 C4.65 6.66 6.3 7.32 8 8 C8 8.66 8 9.32 8 10 C8.33 10.66 8.66 11.32 9 12 C5.25 16.875 5.25 16.875 3 18 C1.12620395 18.07033769 -0.75001102 18.0843022 -2.625 18.0625 C-3.62789062 18.05347656 -4.63078125 18.04445313 -5.6640625 18.03515625 C-6.43492188 18.02355469 -7.20578125 18.01195313 -8 18 C-7.38722388 15.03824877 -6.74627478 13.61941217 -5 11 C-6.3921875 10.1028125 -6.3921875 10.1028125 -7.8125 9.1875 C-10.20254718 7.54727155 -12.08470253 6.1281083 -14 4 C-13.67 3.01 -13.34 2.02 -13 1 C-9.03284274 -0.98357863 -4.3115955 -0.556717 0 0 Z " fill="#C64C7F" transform="translate(19,20)"/>
<path d="M0 0 C4.7504701 1.15162911 7.5463781 4.00915517 10.6171875 7.625 C12.94895518 11.62984393 12.57836699 15.51995093 12 20 C11.34 20 10.68 20 10 20 C9.34 19.34 8.68 18.68 8 18 C7.01 17.21625 6.02 16.4325 5 15.625 C1.71528008 12.75087007 0.16638963 11.00998678 -0.1953125 6.640625 C-0.17210938 5.85171875 -0.14890625 5.0628125 -0.125 4.25 C-0.10695313 3.45078125 -0.08890625 2.6515625 -0.0703125 1.828125 C-0.04710938 1.22484375 -0.02390625 0.6215625 0 0 Z " fill="#EF4F76" transform="translate(18,6)"/>
<path d="M0 0 C2 3 2 3 1.75 6.5625 C1 10 1 10 -1 12 C-4.5 12.25 -4.5 12.25 -8 12 C-10 10 -10 10 -10.3125 6.0625 C-10.23015998 3.54655498 -10.10091012 2.19588435 -8.9375 -0.0625 C-5.76026699 -1.59987081 -3.32611047 -0.8466463 0 0 Z " fill="#413E50" transform="translate(223,71)"/>
<path d="M0 0 C2 3 2 3 1.75 6.5625 C1 10 1 10 -1 12 C-4.5 12.25 -4.5 12.25 -8 12 C-10 10 -10 10 -10.3125 6.0625 C-10.23015998 3.54655498 -10.10091012 2.19588435 -8.9375 -0.0625 C-5.76026699 -1.59987081 -3.32611047 -0.8466463 0 0 Z " fill="#413E50" transform="translate(114,71)"/>
<path d="M0 0 C6.27586207 -0.48275862 6.27586207 -0.48275862 9.4375 1.625 C11.44814771 4.68118452 11.53520313 6.40649325 11 10 C10 11.875 10 11.875 8 13 C5.28121737 13.24131207 2.7407889 13.1347929 0 13 C0 8.71 0 4.42 0 0 Z " fill="#4F4552" transform="translate(71,70)"/>
<path d="M0 0 C6.27586207 -0.48275862 6.27586207 -0.48275862 9.4375 1.625 C11.44814771 4.68118452 11.53520313 6.40649325 11 10 C10 11.875 10 11.875 8 13 C5.28121737 13.24131207 2.7407889 13.1347929 0 13 C0 8.71 0 4.42 0 0 Z " fill="#4F4552" transform="translate(39,70)"/>
<path d="M0 0 C2.33294775 -0.04241723 4.66702567 -0.04092937 7 0 C8 1 8 1 8.09765625 3.50390625 C8.08605469 4.51324219 8.07445312 5.52257812 8.0625 6.5625 C8.05347656 7.57441406 8.04445312 8.58632812 8.03515625 9.62890625 C8.02355469 10.41136719 8.01195312 11.19382812 8 12 C7.34 12 6.68 12 6 12 C5.71125 11.360625 5.4225 10.72125 5.125 10.0625 C4.17176549 7.84793921 4.17176549 7.84793921 2 7 C2 8.65 2 10.3 2 12 C1.34 12 0.68 12 0 12 C0 8.04 0 4.08 0 0 Z " fill="#696A76" transform="translate(198,71)"/>
<path d="M0 0 C2.33294775 -0.04241723 4.66702567 -0.04092937 7 0 C8 1 8 1 8.09765625 3.50390625 C8.08605469 4.51324219 8.07445313 5.52257812 8.0625 6.5625 C8.05347656 7.57441406 8.04445313 8.58632812 8.03515625 9.62890625 C8.02355469 10.41136719 8.01195313 11.19382812 8 12 C7.34 12 6.68 12 6 12 C5.71125 11.360625 5.4225 10.72125 5.125 10.0625 C4.17176549 7.84793921 4.17176549 7.84793921 2 7 C2 8.65 2 10.3 2 12 C1.34 12 0.68 12 0 12 C0 8.04 0 4.08 0 0 Z " fill="#696A76" transform="translate(89,71)"/>
<path d="M0 0 C0.66 0 1.32 0 2 0 C2 4.29 2 8.58 2 13 C-2.17799643 10.91100178 -2.92391901 9.94455388 -5 6 C-5.33 8.31 -5.66 10.62 -6 13 C-6.66 13 -7.32 13 -8 13 C-8 9.04 -8 5.08 -8 1 C-3.82200357 3.08899822 -3.07608099 4.05544612 -1 8 C-0.67 5.36 -0.34 2.72 0 0 Z " fill="#464F69" transform="translate(240,70)"/>
<path d="M0 0 C2.5625 0.1875 2.5625 0.1875 4.5625 2.1875 C4.8125 4.6875 4.8125 4.6875 4.5625 7.1875 C2.5625 9.1875 2.5625 9.1875 0 9.375 C-2.4375 9.1875 -2.4375 9.1875 -3.4375 8.1875 C-3.5625 4.6875 -3.5625 4.6875 -3.4375 1.1875 C-2.4375 0.1875 -2.4375 0.1875 0 0 Z " fill="#F6F6F1" transform="translate(218.4375,71.8125)"/>
<path d="M0 0 C2.5625 0.1875 2.5625 0.1875 4.5625 2.1875 C4.8125 4.6875 4.8125 4.6875 4.5625 7.1875 C2.5625 9.1875 2.5625 9.1875 0 9.375 C-2.4375 9.1875 -2.4375 9.1875 -3.4375 8.1875 C-3.5625 4.6875 -3.5625 4.6875 -3.4375 1.1875 C-2.4375 0.1875 -2.4375 0.1875 0 0 Z " fill="#F6F6F1" transform="translate(109.4375,71.8125)"/>
<path d="M0 0 C0 3.3 0 6.6 0 10 C-3.93673644 8.68775452 -6.22719294 7.08089673 -9 4 C-8.67 3.01 -8.34 2.02 -8 1 C-5.29120665 -0.35439668 -2.99066732 -0.06501451 0 0 Z " fill="#EA4973" transform="translate(14,20)"/>
<path d="M0 0 C1.4540625 0.0309375 1.4540625 0.0309375 2.9375 0.0625 C3.2675 0.7225 3.5975 1.3825 3.9375 2.0625 C1.9575 2.0625 -0.0225 2.0625 -2.0625 2.0625 C-1.7325 3.0525 -1.4025 4.0425 -1.0625 5.0625 C1.44197516 6.28119929 1.44197516 6.28119929 3.9375 7.0625 C3.980221 8.72861905 3.97813832 10.39632885 3.9375 12.0625 C2.9375 13.0625 2.9375 13.0625 1.08984375 13.16015625 C-0.9609375 13.12760417 -3.01171875 13.09505208 -5.0625 13.0625 C-5.0625 12.4025 -5.0625 11.7425 -5.0625 11.0625 C-2.7525 11.0625 -0.4425 11.0625 1.9375 11.0625 C1.9375 10.0725 1.9375 9.0825 1.9375 8.0625 C1.15375 7.93875 0.37 7.815 -0.4375 7.6875 C-3.0625 7.0625 -3.0625 7.0625 -5.0625 5.0625 C-4.45789299 1.07209375 -4.2025713 0.08576676 0 0 Z " fill="#594E4D" transform="translate(158.0625,69.9375)"/>
<path d="M0 0 C2.375 -0.125 2.375 -0.125 5 0 C7 2 7 2 7.25 4.5 C7 7 7 7 5 9 C2.375 9.125 2.375 9.125 0 9 C0 6.03 0 3.06 0 0 Z " fill="#F9FAF2" transform="translate(73,72)"/>
<path d="M0 0 C2.375 -0.125 2.375 -0.125 5 0 C7 2 7 2 7.25 4.5 C7 7 7 7 5 9 C2.375 9.125 2.375 9.125 0 9 C0 6.03 0 3.06 0 0 Z " fill="#F9FAF2" transform="translate(41,72)"/>
<path d="M0 0 C2.64 0 5.28 0 8 0 C8 0.66 8 1.32 8 2 C6.02 2 4.04 2 2 2 C2 3.32 2 4.64 2 6 C3.32 6.33 4.64 6.66 6 7 C4.68 7 3.36 7 2 7 C2 8.32 2 9.64 2 11 C3.98 11 5.96 11 8 11 C8 11.66 8 12.32 8 13 C5.36 13 2.72 13 0 13 C0 8.71 0 4.42 0 0 Z " fill="#4D4450" transform="translate(183,70)"/>
<path d="M0 0 C4.875 3.75 4.875 3.75 6 6 C6.06996014 7.70702735 6.08440154 9.41668003 6.0625 11.125 C6.05347656 12.03507812 6.04445313 12.94515625 6.03515625 13.8828125 C6.02355469 14.58148438 6.01195312 15.28015625 6 16 C5.34 16 4.68 16 4 16 C3.34 13.03 2.68 10.06 2 7 C1.34 7 0.68 7 0 7 C0 4.69 0 2.38 0 0 Z " fill="#A43D7B" transform="translate(24,10)"/>
<path d="M0 0 C0.33 0.66 0.66 1.32 1 2 C-1.31 2.66 -3.62 3.32 -6 4 C-6 5.98 -6 7.96 -6 10 C-4.35 10.33 -2.7 10.66 -1 11 C-0.67 10.01 -0.34 9.02 0 8 C-0.66 7.67 -1.32 7.34 -2 7 C-1.01 7 -0.02 7 1 7 C1 8.98 1 10.96 1 13 C-5.34507042 13.35915493 -5.34507042 13.35915493 -7.9375 11.9375 C-9.63335287 8.84506242 -9.43060657 6.44485259 -9 3 C-6.29148704 -0.10977414 -4.00164289 -0.33347024 0 0 Z " fill="#493231" transform="translate(131,70)"/>
<path d="M0 0 C2.64 0 5.28 0 8 0 C8 0.66 8 1.32 8 2 C6.02 2 4.04 2 2 2 C2 3.32 2 4.64 2 6 C3.65 6 5.3 6 7 6 C7 6.33 7 6.66 7 7 C5.35 7 3.7 7 2 7 C2 8.65 2 10.3 2 12 C3.98 12 5.96 12 8 12 C8 12.33 8 12.66 8 13 C5.36 13 2.72 13 0 13 C0 8.71 0 4.42 0 0 Z " fill="#58443F" transform="translate(139,70)"/>
<path d="M0 0 C0.66 0 1.32 0 2 0 C2 2.64 2 5.28 2 8 C2.66 8 3.32 8 4 8 C4.33 10.31 4.66 12.62 5 15 C2.51953125 13.88671875 2.51953125 13.88671875 0 12 C-0.48828125 9.08203125 -0.48828125 9.08203125 -0.3125 5.8125 C-0.26738281 4.72582031 -0.22226562 3.63914062 -0.17578125 2.51953125 C-0.11777344 1.68808594 -0.05976563 0.85664063 0 0 Z " fill="#D94171" transform="translate(22,9)"/>
<path d="M0 0 C0.66 0 1.32 0 2 0 C2.66 1.65 3.32 3.3 4 5 C4.66 5 5.32 5 6 5 C6.66 3.35 7.32 1.7 8 0 C8.66 0 9.32 0 10 0 C9.566875 0.99 9.566875 0.99 9.125 2 C7.76562701 5.62499465 6.89375361 9.23346693 6 13 C5.34 13 4.68 13 4 13 C3.71125 11.783125 3.4225 10.56625 3.125 9.3125 C2.32164208 6.08185352 1.33734591 3.05679065 0 0 Z " fill="#5A4853" transform="translate(55,70)"/>
<path d="M0 0 C0 2.31 0 4.62 0 7 C-2.31 7 -4.62 7 -7 7 C-6.61402985 4.20171644 -6.19863427 3.1794116 -4.0625 1.25 C-2 0 -2 0 0 0 Z " fill="#EA4973" transform="translate(18,31)"/>
<path d="M0 0 C0.66 0 1.32 0 2 0 C3.36011539 2.72023078 3.2062431 4.9661881 3.25 8 C3.27578125 9.0725 3.3015625 10.145 3.328125 11.25 C3.21984375 12.1575 3.1115625 13.065 3 14 C2.01 14.66 1.02 15.32 0 16 C0 10.72 0 5.44 0 0 Z " fill="#7A6360" transform="translate(263,70)"/>
<path d="M0 0 C0 0.99 0 1.98 0 3 C-2.31 2.67 -4.62 2.34 -7 2 C-7.66 4.31 -8.32 6.62 -9 9 C-9.33 9 -9.66 9 -10 9 C-10.35807422 2.67402207 -10.35807422 2.67402207 -8.9375 0 C-5.86664787 -1.58495594 -3.27813225 -0.68036707 0 0 Z " fill="#473B3F" transform="translate(223,71)"/>
<path d="M0 0 C0.94875 0.04125 1.8975 0.0825 2.875 0.125 C3.205 0.785 3.535 1.445 3.875 2.125 C1.895 2.125 -0.085 2.125 -2.125 2.125 C-1.795 3.445 -1.465 4.765 -1.125 6.125 C-2.115 6.125 -3.105 6.125 -4.125 6.125 C-4.75 4.25 -4.75 4.25 -5.125 2.125 C-3.125 0.125 -3.125 0.125 0 0 Z " fill="#605757" transform="translate(158.125,69.875)"/>
<path d="M0 0 C0 0.99 0 1.98 0 3 C-2.31 2.67 -4.62 2.34 -7 2 C-7.66 4.31 -8.32 6.62 -9 9 C-9.33 9 -9.66 9 -10 9 C-10.35807422 2.67402207 -10.35807422 2.67402207 -8.9375 0 C-5.86664787 -1.58495594 -3.27813225 -0.68036707 0 0 Z " fill="#473B3F" transform="translate(114,71)"/>
<path d="M0 0 C2.64 0.33 5.28 0.66 8 1 C8 2.32 8 3.64 8 5 C5.69 5 3.38 5 1 5 C0.67 3.35 0.34 1.7 0 0 Z " fill="#938A92" transform="translate(273,24)"/>
<path d="M0 0 C0.33 0.66 0.66 1.32 1 2 C-0.75 4.5 -0.75 4.5 -3 7 C-4.32 7 -5.64 7 -7 7 C-5.54744301 3.17053157 -3.57104439 1.87949705 0 0 Z " fill="#9F3979" transform="translate(27,30)"/>
<path d="M0 0 C2.1875 -0.3125 2.1875 -0.3125 5 0 C7.8125 2.5 7.8125 2.5 10 5 C6.7 4.34 3.4 3.68 0 3 C0 2.01 0 1.02 0 0 Z " fill="#AA3C79" transform="translate(16,21)"/>
<path d="M0 0 C0.33 0.66 0.66 1.32 1 2 C-1.31 2.66 -3.62 3.32 -6 4 C-6.33 5.65 -6.66 7.3 -7 9 C-7.33 9 -7.66 9 -8 9 C-8.1875 5.625 -8.1875 5.625 -8 2 C-4.77208445 -0.1519437 -3.71599191 -0.20086443 0 0 Z " fill="#47485B" transform="translate(131,70)"/>
<path d="M0 0 C2.97 0.495 2.97 0.495 6 1 C5.01 2.485 5.01 2.485 4 4 C1.375 4.1875 1.375 4.1875 -1 4 C-0.67 2.68 -0.34 1.36 0 0 Z " fill="#983A7B" transform="translate(21,27)"/>
<path d="M0 0 C0.33 0 0.66 0 1 0 C1.0825 0.94875 1.165 1.8975 1.25 2.875 C1.65074923 6.10461791 1.65074923 6.10461791 4.0625 7.375 C4.701875 7.58125 5.34125 7.7875 6 8 C4.35 8.33 2.7 8.66 1 9 C-1 6 -1 6 -0.625 2.8125 C-0.41875 1.884375 -0.2125 0.95625 0 0 Z " fill="#606A7F" transform="translate(214,74)"/>
<path d="M0 0 C0.33 0 0.66 0 1 0 C1.0825 0.94875 1.165 1.8975 1.25 2.875 C1.65074923 6.10461791 1.65074923 6.10461791 4.0625 7.375 C4.701875 7.58125 5.34125 7.7875 6 8 C4.35 8.33 2.7 8.66 1 9 C-1 6 -1 6 -0.625 2.8125 C-0.41875 1.884375 -0.2125 0.95625 0 0 Z " fill="#606A7F" transform="translate(105,74)"/>
<path d="M0 0 C0.66 0 1.32 0 2 0 C2.33 2.31 2.66 4.62 3 7 C2.01 6.67 1.02 6.34 0 6 C0 4.02 0 2.04 0 0 Z " fill="#C6618F" transform="translate(24,17)"/>
</svg>
